HIERARCHY
ROOT Hips
{
	OFFSET -0.001795 -0.223333 0.028219
	CHANNELS 6 Xposition Yposition Zposition Zrotation Yrotation Xrotation 
	JOINT LeftUpLeg
	{
		OFFSET 0.069520 -0.091406 -0.006815
		CHANNELS 3 Zrotation Yrotation Xrotation
		JOINT LeftLeg
		{
			OFFSET 0.034277 -0.375199 -0.004496
			CHANNELS 3 Zrotation Yrotation Xrotation
			JOINT LeftFoot
			{
				OFFSET -0.013596 -0.397961 -0.043693
				CHANNELS 3 Zrotation Yrotation Xrotation
				JOINT LeftToe
				{
					OFFSET 0.026358 -0.055791 0.119288
					CHANNELS 3 Zrotation Yrotation Xrotation
					End Site
					{
						OFFSET 0.000000 0.000000 0.000000
					}
				}
			}
		}
	}
	JOINT RightUpLeg
	{
		OFFSET -0.067670 -0.090522 -0.004320
		CHANNELS 3 Zrotation Yrotation Xrotation
		JOINT RightLeg
		{
			OFFSET -0.038290 -0.382569 -0.008850
			CHANNELS 3 Zrotation Yrotation Xrotation
			JOINT RightFoot
			{
				OFFSET 0.015774 -0.398415 -0.042312
				CHANNELS 3 Zrotation Yrotation Xrotation
				JOINT RightToe
				{
					OFFSET -0.025372 -0.048144 0.123348
					CHANNELS 3 Zrotation Yrotation Xrotation
					End Site
					{
						OFFSET 0.000000 0.000000 0.000000
					}
				}
			}
		}
	}
	JOINT Spine
	{
		OFFSET -0.002533 0.108963 -0.026696
		CHANNELS 3 Zrotation Yrotation Xrotation
		JOINT Spine1
		{
			OFFSET 0.005487 0.135180 0.001092
			CHANNELS 3 Zrotation Yrotation Xrotation
			JOINT Spine2
			{
				OFFSET 0.001457 0.052922 0.025425
				CHANNELS 3 Zrotation Yrotation Xrotation
				JOINT Neck
				{
					OFFSET -0.002778 0.213870 -0.042857
					CHANNELS 3 Zrotation Yrotation Xrotation
					JOINT Head
					{
						OFFSET 0.005152 0.064970 0.051349
						CHANNELS 3 Zrotation Yrotation Xrotation
						End Site
						{
							OFFSET 0.000000 0.000000 0.000000
						}
					}
				}
				JOINT LeftShoulder
				{
					OFFSET 0.078845 0.121749 -0.034090
					CHANNELS 3 Zrotation Yrotation Xrotation
					JOINT LeftArm
					{
						OFFSET 0.090977 0.030469 -0.008868
						CHANNELS 3 Zrotation Yrotation Xrotation
						JOINT LeftForeArm
						{
							OFFSET 0.259612 -0.012772 -0.027456
							CHANNELS 3 Zrotation Yrotation Xrotation
							JOINT LeftHand
							{
								OFFSET 0.249234 0.008986 -0.001171
								CHANNELS 3 Zrotation Yrotation Xrotation
								End Site
								{
									OFFSET 0.000000 0.000000 0.000000
								}
							}
						}
					}
				}
				JOINT RightShoulder
				{
					OFFSET -0.081759 0.118833 -0.038615
					CHANNELS 3 Zrotation Yrotation Xrotation
					JOINT RightArm
					{
						OFFSET -0.096012 0.032551 -0.009143
						CHANNELS 3 Zrotation Yrotation Xrotation
						JOINT RightForeArm
						{
							OFFSET -0.253742 -0.013329 -0.021401
							CHANNELS 3 Zrotation Yrotation Xrotation
							JOINT RightHand
							{
								OFFSET -0.255298 0.007772 -0.005559
								CHANNELS 3 Zrotation Yrotation Xrotation
								End Site
								{
									OFFSET 0.000000 0.000000 0.000000
								}
							}
						}
					}
				}
			}
		}
	}
}
MOTION
Frames: 18
Frame Time: 0.050000
0.000000 0.941929 0.000000 2.477356 19.844970 3.693530 6.061957 -0.360636 1.072449 -6.039108 0.368547 3.170077 7.600402 16.720126 8.680906 0.000000 0.000000 0.000000 -6.744820 0.119999 -12.836084 3.787174 -0.948530 11.753861 -1.458865 -4.285332 4.639554 0.000000 0.000000 0.000000 9.378261 -2.974121 17.169654 -3.456737 1.852138 -20.574868 -2.915586 -5.157695 26.050657 3.268790 0.468173 -24.609263 0.000000 0.000000 0.000000 -5.314280 -26.202458 9.364878 -7.312022 -35.740135 -1.542944 25.648795 -25.038093 -5.280947 0.000000 0.000000 0.000000 27.907203 8.652027 6.673846 46.413480 21.611439 0.498837 5.597061 35.151314 3.822673 0.000000 0.000000 0.000000 
0.001157 0.942839 0.001391 3.085759 20.749682 5.117562 4.954311 -0.330466 -0.424151 -4.504837 0.244725 2.404472 7.662380 17.193269 10.076896 0.000000 0.000000 0.000000 -8.149670 -0.153918 -14.586431 4.989648 -1.386427 12.941835 -1.417678 -4.158442 4.900307 0.000000 0.000000 0.000000 8.059623 -2.554961 16.074329 -2.607484 1.642071 -21.066059 -2.827140 -5.189884 26.142355 3.052512 0.654291 -24.328943 0.000000 0.000000 0.000000 -5.270004 -23.875585 8.414524 -7.073710 -35.528335 -1.645829 28.972774 -24.669952 -6.067238 0.000000 0.000000 0.000000 29.636959 7.142713 6.042508 43.937262 20.064335 -0.385666 8.088324 36.445711 4.757677 0.000000 0.000000 0.000000 
0.003314 0.942723 0.002783 2.430392 21.711785 4.608087 5.743861 -0.392511 -0.179910 -4.327010 0.222438 2.242721 6.538457 15.533629 9.729672 0.000000 0.000000 0.000000 -7.882709 -0.145467 -14.090334 4.679747 -1.413645 13.835546 -1.573899 -4.473594 5.002837 0.000000 0.000000 0.000000 9.266882 -2.753216 15.714268 -4.302537 2.015231 -22.343029 -2.311009 -5.845264 26.489102 2.130588 1.088513 -23.151604 0.000000 0.000000 0.000000 -4.278574 -23.457660 8.163795 -5.813971 -35.013227 -1.908629 27.902034 -25.399714 -6.018665 0.000000 0.000000 0.000000 28.084979 5.772676 4.978730 44.783543 18.162772 -1.000400 8.523274 34.247813 4.559612 0.000000 0.000000 0.000000 
0.006358 0.943412 0.003772 2.455469 22.323529 4.453690 5.135698 -0.345398 -0.073032 -3.435356 0.141065 3.017454 6.978274 15.878339 8.722093 0.000000 0.000000 0.000000 -8.402749 -0.264449 -13.812053 4.765985 -1.502115 14.233130 -1.095107 -3.427972 5.496257 0.000000 0.000000 0.000000 9.555824 -2.979179 16.493541 -4.849793 2.083499 -23.347191 -2.456659 -5.585078 26.916357 1.966492 1.383747 -23.987314 0.000000 0.000000 0.000000 -2.960880 -23.209246 7.868109 -4.115464 -33.992838 -2.193942 29.903971 -24.848628 -6.498974 0.000000 0.000000 0.000000 26.973490 4.884719 4.552878 46.503690 17.162922 -1.307113 7.045790 33.675458 4.131989 0.000000 0.000000 0.000000 
0.010071 0.943213 0.004363 2.582931 23.019848 4.112218 4.941783 -0.318430 0.486837 -3.075335 0.109442 2.977029 6.560727 15.154011 8.349890 0.000000 0.000000 0.000000 -8.855869 -0.386098 -13.776177 4.533286 -1.493332 14.578813 -1.767493 -4.922538 6.142191 0.000000 0.000000 0.000000 9.364871 -3.032519 16.919508 -4.899348 2.088897 -23.764346 -2.731954 -5.892097 26.843158 1.772445 1.524279 -24.105729 0.000000 0.000000 0.000000 -2.926926 -23.915763 8.091227 -2.616873 -33.274773 -2.389248 32.903527 -25.569856 -7.517455 0.000000 0.000000 0.000000 26.895381 4.460067 4.293776 45.774341 16.438321 -1.597423 7.032504 31.766130 3.796964 0.000000 0.000000 0.000000 
0.013984 0.943558 0.003918 2.612297 22.753137 4.382160 4.549287 -0.290926 0.293323 -2.622300 0.073152 3.086255 6.358087 14.861603 8.310805 0.000000 0.000000 0.000000 -9.293760 -0.480166 -14.505426 4.541253 -1.568899 15.584043 -1.468374 -4.280087 5.988530 0.000000 0.000000 0.000000 8.813226 -2.945896 17.087840 -4.572657 1.993480 -24.120292 -2.567807 -5.474150 26.942563 1.236092 1.930882 -24.497573 0.000000 0.000000 0.000000 -2.526771 -23.488123 7.879125 -2.069170 -33.386914 -2.522230 35.724589 -24.468017 -7.972016 0.000000 0.000000 0.000000 27.182748 4.835767 4.690967 45.104430 16.119796 -1.786641 6.381596 31.251927 3.527473 0.000000 0.000000 0.000000 
0.017701 0.943417 0.002467 2.628930 22.973715 4.111589 4.519430 -0.287865 0.299692 -2.938343 0.090934 3.275124 6.619132 15.225243 8.281429 0.000000 0.000000 0.000000 -9.730415 -0.585317 -14.547053 4.456207 -1.570637 15.789831 -1.864818 -5.189406 6.762962 0.000000 0.000000 0.000000 8.086156 -2.984560 18.093758 -4.345991 1.940980 -24.404049 -2.640690 -5.447964 26.694112 0.977860 2.127727 -24.835997 0.000000 0.000000 0.000000 -1.884206 -23.577574 7.824178 -1.429363 -33.653260 -2.657453 37.960464 -23.323453 -8.205447 0.000000 0.000000 0.000000 27.958310 5.018269 4.924169 44.477783 15.856558 -1.927182 5.735938 31.075103 3.309455 0.000000 0.000000 0.000000 
0.021227 0.943048 -0.000130 2.696806 23.244224 3.914877 4.339375 -0.278119 0.158159 -3.400114 0.112660 3.740119 6.787515 15.188867 7.356314 0.000000 0.000000 0.000000 -10.115271 -0.675290 -14.482611 4.196001 -1.524735 16.075474 -2.131140 -5.761172 6.976780 0.000000 0.000000 0.000000 7.609227 -3.040305 18.907258 -4.703150 2.013546 -24.572632 -2.568144 -5.532301 26.687875 0.945727 2.099452 -24.290312 0.000000 0.000000 0.000000 -1.755697 -23.904348 7.910340 -0.981210 -33.790730 -2.745363 39.178021 -23.074093 -8.440610 0.000000 0.000000 0.000000 28.776409 5.297223 5.202391 44.106289 15.666098 -2.055080 5.910819 31.184168 3.353876 0.000000 0.000000 0.000000 
0.024627 0.942748 -0.003546 2.608233 23.362451 3.852751 4.375913 -0.305891 -0.582515 -3.682480 0.106284 4.786225 6.794174 15.179612 7.208195 0.000000 0.000000 0.000000 -10.409338 -0.762386 -14.835720 3.848088 -1.411413 16.000372 -1.904416 -5.313680 7.760602 0.000000 0.000000 0.000000 7.262658 -3.139937 19.789436 -4.889322 2.052476 -24.629410 -2.571329 -5.167078 26.374902 0.670792 2.305447 -24.068184 0.000000 0.000000 0.000000 -2.153622 -24.475579 8.112477 -0.936780 -34.063363 -2.777123 39.648531 -22.962552 -8.537923 0.000000 0.000000 0.000000 29.214912 5.427859 5.458235 44.649286 15.960155 -1.963544 5.870030 31.852364 3.458964 0.000000 0.000000 0.000000 
0.028098 0.942313 -0.007547 2.628320 23.761049 3.641535 4.100611 -0.313855 -1.275088 -3.876377 0.085731 5.871476 7.111561 15.546428 6.818533 0.000000 0.000000 0.000000 -10.755588 -0.863951 -14.854902 3.601947 -1.377312 16.287233 -1.814705 -5.113932 7.989609 0.000000 0.000000 0.000000 6.821765 -3.161804 20.365964 -5.046663 2.116553 -24.283982 -2.526311 -4.904333 26.176831 0.864615 2.266242 -24.130630 0.000000 0.000000 0.000000 -3.203375 -24.982429 8.345523 -1.216994 -33.910209 -2.691656 39.130982 -24.019949 -8.795769 0.000000 0.000000 0.000000 29.721152 5.597366 5.806421 44.835513 16.154659 -1.948028 6.026088 32.811060 3.663557 0.000000 0.000000 0.000000 
0.031526 0.942056 -0.011795 2.428857 24.351594 3.074413 4.174986 -0.331239 -1.580020 -4.235142 0.088011 6.603935 7.045349 15.349028 6.488780 0.000000 0.000000 0.000000 -10.885611 -0.928197 -14.640081 3.583090 -1.424301 16.530119 -1.627157 -4.715102 8.372707 0.000000 0.000000 0.000000 6.782679 -3.339105 21.215617 -5.750271 2.281051 -24.173384 -2.171175 -4.560870 26.473171 1.091656 2.183769 -23.570643 0.000000 0.000000 0.000000 -4.855907 -25.498913 8.623175 -2.176041 -34.028428 -2.515913 38.310088 -26.756707 -9.544281 0.000000 0.000000 0.000000 29.647679 5.867208 6.233567 45.501793 16.667207 -1.832828 7.125754 34.166299 4.233773 0.000000 0.000000 0.000000 
0.034393 0.942056 -0.016216 2.153047 25.287212 2.806179 4.178354 -0.354494 -2.001359 -4.377673 0.089033 6.516597 6.826248 15.052822 6.571351 0.000000 0.000000 0.000000 -10.888820 -0.980166 -14.452808 3.717674 -1.499565 16.308150 -1.707390 -4.828203 8.851728 0.000000 0.000000 0.000000 6.573016 -3.388111 21.496022 -5.953783 2.362891 -23.764035 -2.105723 -3.935765 26.125768 1.887788 1.881079 -23.491393 0.000000 0.000000 0.000000 -6.807879 -26.051647 8.860734 -5.064284 -34.405316 -1.966393 36.115276 -31.154244 -10.393340 0.000000 0.000000 0.000000 29.515123 6.058433 6.774104 46.494225 16.953754 -1.740494 7.507132 35.627790 4.664360 0.000000 0.000000 0.000000 
0.036056 0.942429 -0.020740 1.619689 26.407709 2.281078 4.521038 -0.370437 -1.703457 -4.802277 0.131827 5.749284 6.999496 15.244337 6.514388 0.000000 0.000000 0.000000 -10.738967 -0.987707 -13.878178 3.891185 -1.541530 15.528500 -2.187373 -5.729475 9.675090 0.000000 0.000000 0.000000 6.540571 -3.539803 22.014626 -6.449837 2.487644 -23.625632 -1.853926 -3.482411 26.144048 2.412127 1.738526 -23.617320 0.000000 0.000000 0.000000 -9.147784 -26.031299 8.872399 -7.645796 -34.239394 -1.418930 32.048846 -36.919337 -10.852285 0.000000 0.000000 0.000000 29.581868 6.613123 7.553477 46.616060 17.550570 -1.606699 8.383052 36.582072 5.130357 0.000000 0.000000 0.000000 
0.036353 0.942578 -0.025335 0.973718 27.546916 2.079747 5.422574 -0.455971 -2.035528 -5.407429 0.173494 4.998279 7.095382 15.520549 6.978757 0.000000 0.000000 0.000000 -10.381426 -0.973606 -13.870588 4.397736 -1.730151 15.183028 -2.610144 -6.465652 9.538978 0.000000 0.000000 0.000000 6.333480 -3.626239 22.356136 -6.758210 2.542320 -23.802617 -1.817797 -2.684944 26.301927 3.797722 1.087454 -23.327935 0.000000 0.000000 0.000000 -10.271080 -25.715664 8.558728 -11.099542 -33.295774 -0.742737 26.652457 -42.486358 -10.442881 0.000000 0.000000 0.000000 30.282309 6.370643 8.087732 46.457081 18.519256 -1.465419 8.866514 37.415631 5.525779 0.000000 0.000000 0.000000 
0.035875 0.942876 -0.029771 0.266988 28.909736 1.999835 6.061257 -0.532943 -2.470059 -5.672734 0.173491 4.356342 7.378423 15.955368 7.162371 0.000000 0.000000 0.000000 -9.927760 -0.960959 -14.049814 4.966454 -2.021237 15.405118 -3.254174 -7.623387 9.864487 0.000000 0.000000 0.000000 6.334332 -3.736498 22.491866 -7.221846 2.676855 -23.332792 -1.716731 -2.299806 25.788851 4.133227 1.055481 -23.321341 0.000000 0.000000 0.000000 -12.261512 -25.228598 8.200220 -13.489472 -31.657547 -0.257235 19.670335 -47.762652 -8.709320 0.000000 0.000000 0.000000 30.861590 7.135612 9.144102 45.732989 19.425873 -1.263866 9.239286 37.479417 5.620200 0.000000 0.000000 0.000000 
0.035465 0.942763 -0.033519 -0.153513 30.280935 1.936875 6.874343 -0.628279 -2.938932 -6.395195 0.185210 3.693428 7.407229 16.144686 7.667059 0.000000 0.000000 0.000000 -9.760694 -0.980170 -13.722340 5.669133 -2.335074 15.311307 -4.001124 -9.036047 9.390403 0.000000 0.000000 0.000000 6.465808 -3.745871 22.061598 -7.632215 2.778017 -23.117999 -1.648585 -1.352601 25.788382 5.314158 0.615209 -23.257448 0.000000 0.000000 0.000000 -13.295939 -24.758644 7.604310 -16.523503 -29.237603 0.181433 12.815814 -52.708393 -6.561566 0.000000 0.000000 0.000000 31.517191 6.688812 9.767349 45.462040 19.992994 -1.363225 9.144882 37.582760 5.713526 0.000000 0.000000 0.000000 
0.035233 0.942523 -0.036256 -0.325328 31.645259 1.856815 7.497336 -0.708776 -3.424502 -7.442244 0.192758 3.722104 7.497718 16.268920 7.705450 0.000000 0.000000 0.000000 -10.165412 -1.127907 -13.381408 6.184708 -2.637191 15.584588 -4.766915 -10.547226 8.982878 0.000000 0.000000 0.000000 6.124540 -3.564203 21.391500 -8.119995 2.941978 -22.394395 -1.474088 -0.595077 25.703695 5.965411 0.535341 -23.677669 0.000000 0.000000 0.000000 -13.638841 -24.286516 6.998840 -19.822813 -27.183312 0.527358 6.576567 -56.527373 -4.092666 0.000000 0.000000 0.000000 32.066001 6.574808 10.521145 44.946732 20.382006 -1.502571 9.316618 37.724161 5.839809 0.000000 0.000000 0.000000 
0.035114 0.941864 -0.037613 -0.826379 33.066231 1.585411 8.444613 -0.822739 -3.786022 -8.318526 0.179293 3.804550 7.783150 16.635138 7.749674 0.000000 0.000000 0.000000 -9.981728 -1.104258 -12.447941 6.545832 -2.786769 15.050621 -5.675047 -12.375605 8.717824 0.000000 0.000000 0.000000 6.442979 -3.606045 20.949153 -8.661294 3.050138 -22.309955 -1.288772 0.170049 25.892613 6.885572 0.230018 -23.652794 0.000000 0.000000 0.000000 -13.907568 -23.392017 6.180341 -22.690554 -25.735030 0.753683 1.338058 -60.606269 -1.853056 0.000000 0.000000 0.000000 31.854887 6.367824 11.011638 45.254765 20.648902 -1.536275 9.400134 37.792558 5.947990 0.000000 0.000000 0.000000 
